<svg width="32" height="32" viewBox="0 0 32 32" fill="none" xmlns="http://www.w3.org/2000/svg">
<g clip-path="url(#clip0)">
<path d="M15.88 3.56701C15.867 3.56701 15.842 3.56401 15.842 3.56401C15.827 3.56401 15.812 3.56201 15.797 3.56201C10.445 3.56201 6.10596 7.90201 6.10596 13.252C6.10596 18.605 10.445 22.943 15.797 22.943C15.81 22.943 15.822 22.942 15.835 22.941C15.835 22.941 15.865 22.949 15.88 22.949C21.233 22.949 25.571 18.609 25.571 13.257C25.571 7.90801 21.232 3.56701 15.88 3.56701Z" fill="#003262"/>
<path d="M25.329 20.994C25.461 20.959 25.611 20.949 25.777 20.974C26.493 21.083 26.812 20.644 26.486 19.999C26.162 19.352 26.486 18.789 27.208 18.749C27.932 18.707 28.152 18.211 27.7 17.646C27.247 17.082 27.447 16.463 28.144 16.273C28.843 16.084 28.956 15.55 28.394 15.093C27.833 14.635 27.903 13.989 28.544 13.655C29.189 13.324 29.189 12.784 28.544 12.451C27.901 12.119 27.833 11.473 28.394 11.015C28.956 10.557 28.843 10.027 28.144 9.83597C27.447 9.64597 27.247 9.02697 27.7 8.46197C28.152 7.89897 27.931 7.40197 27.208 7.36097C26.486 7.31897 26.162 6.75697 26.486 6.11197C26.812 5.46497 26.493 5.02497 25.777 5.13597C25.062 5.24397 24.628 4.76297 24.812 4.06297C24.996 3.36297 24.593 2.99997 23.916 3.25497C23.238 3.51097 22.714 3.12997 22.748 2.40697C22.783 1.68297 22.312 1.41197 21.705 1.80497C21.096 2.19597 20.503 1.93197 20.387 1.21697C20.27 0.500969 19.754 0.333969 19.241 0.842969C18.727 1.35297 18.091 1.21697 17.829 0.542969C17.567 -0.131031 17.026 -0.186031 16.631 0.416969C16.416 0.744969 16.128 0.876969 15.844 0.849969C15.558 0.880969 15.267 0.746969 15.05 0.416969C14.654 -0.187031 14.114 -0.131031 13.852 0.542969C13.59 1.21697 12.954 1.35297 12.44 0.842969C11.925 0.332969 11.41 0.499969 11.293 1.21597C11.176 1.93097 10.582 2.19497 9.97397 1.80397C9.36397 1.41297 8.89397 1.68397 8.92897 2.40797C8.96197 3.12897 8.43797 3.50997 7.76097 3.25397C7.08397 2.99997 6.68097 3.36197 6.86497 4.06197C7.04897 4.76197 6.61497 5.24497 5.89997 5.13497C5.18397 5.02397 4.86497 5.46297 5.19097 6.11097C5.51497 6.75697 5.19097 7.31797 4.46897 7.35997C3.74597 7.40097 3.52497 7.89697 3.97697 8.45997C4.43097 9.02597 4.22997 9.64497 3.53297 9.83397C2.83397 10.024 2.72197 10.555 3.28297 11.013C3.84397 11.471 3.77497 12.117 3.13297 12.449C2.48797 12.782 2.48797 13.322 3.13297 13.653C3.77597 13.987 3.84397 14.632 3.28297 15.091C2.72197 15.548 2.83497 16.08 3.53297 16.271C4.23097 16.461 4.43097 17.08 3.97797 17.644C3.52597 18.207 3.74697 18.705 4.46997 18.747C5.19197 18.787 5.51597 19.35 5.19197 19.997C4.86497 20.64 5.18397 21.08 5.89997 20.97C6.06697 20.944 6.21597 20.953 6.34797 20.99L2.37097 28.437H6.57097L8.70497 31.673L12.723 25.056C13.168 24.825 13.635 25.008 13.85 25.561C14.112 26.236 14.653 26.291 15.048 25.687C15.263 25.36 15.551 25.228 15.835 25.255V25.26C16.121 25.229 16.412 25.362 16.629 25.692C17.025 26.296 17.565 26.242 17.827 25.566C18.042 25.013 18.51 24.83 18.954 25.061L22.973 31.678L25.106 28.442H29.307L25.329 20.994ZM20.993 22.49L20.842 22.573C19.356 23.361 17.661 23.812 15.863 23.812C15.856 23.812 15.843 23.805 15.843 23.805C15.834 23.805 15.825 23.806 15.816 23.806C14.017 23.806 12.323 23.355 10.837 22.566L10.685 22.483C7.42597 20.683 5.21297 17.23 5.21297 13.269C5.21297 7.45997 9.96997 2.73397 15.816 2.73397C15.823 2.73397 15.836 2.74097 15.836 2.74097C15.845 2.74097 15.854 2.73997 15.863 2.73997C21.709 2.73997 26.466 7.46697 26.466 13.275C26.464 17.236 24.252 20.689 20.993 22.49Z" fill="#003262"/>
</g>
<defs>
<clipPath id="clip0">
<rect width="31.678" height="31.678" fill="white"/>
</clipPath>
</defs>
</svg>
