<svg width="493" height="410" viewBox="0 0 493 410" fill="none" xmlns="http://www.w3.org/2000/svg">
<path d="M484.14 185.886L306.46 8.20195C301.388 3.12995 294.628 0.345947 287.42 0.345947C280.204 0.345947 273.448 3.13395 268.376 8.20195L252.244 24.3379C247.176 29.4019 244.384 36.1659 244.384 43.3779C244.384 50.5859 247.176 57.5779 252.244 62.6419L355.9 166.526H26.58C11.732 166.526 0 178.15 0 193.002V215.814C0 230.666 11.732 243.462 26.58 243.462H357.076L252.248 347.926C247.18 352.998 244.388 359.578 244.388 366.79C244.388 373.994 247.18 380.67 252.248 385.738L268.38 401.822C273.452 406.894 280.208 409.658 287.424 409.658C294.632 409.658 301.392 406.858 306.464 401.786L484.144 224.106C489.228 219.018 492.024 212.226 492.004 205.006C492.02 197.762 489.228 190.966 484.14 185.886Z" fill="white"/>
</svg>
